:SAMPLES-PER-SECOND 30
:FRAME-RANGE 1-2045
:FULLY-SPECIFIED
:DEGREES
1470
root  -41.6665 37.0463 51.438 -179.024 -22.9365 177.339
RightUpLeg  -22.8507 17.5093 -15.0962
RightLeg  64.9972 -2.98173 -7.57658
RightFoot  -1.90355 -0.886515 10.5535
RightToes  5.82063e-011 0 -3.6325e-017
Spine  20.5679 -2.91362 -8.50941
Spine1  4.72641 -6.51744 6.5068
HEad  -3.76048 -4.05508 -1.73999
LeftShoulder1  1.81922 -2.89281 -22.1116
LeftArm  -6.78915 -14.4659 -61.9107
LeftForeArm  15.6403 -4.03932 -15.0323
LeftHand  0.250281 -0.959607 -4.50527
RightShoulder  3.12661 2.66116 44.3902
RightArm  -12.6375 -10.1823 10.0824
RightForeArm  -24.2843 -5.45593 15.4057
RightHand  0.713533 -1.18722 19.9018
LeftUpLeg  -22.404 25.3284 -7.62195
LeftLeg  37.3237 7.24532 6.2855
LeftFoot  -14.4915 0.142108 2.00346
LeftToes  -3.90176e-010 -2.48536e-010 1.05482e-011
1471
root  -43.0944 37.828 50.5685 -178.075 -25.6167 177.079
RightUpLeg  -25.3599 12.9142 -12.1653
RightLeg  57.7557 -6.02667 -10.6265
RightFoot  -3.82654 -0.703171 10.2827
RightToes  5.82063e-011 0 -3.6325e-017
Spine  19.6246 -3.52868 -7.05638
Spine1  4.39639 -6.64898 6.76409
HEad  -2.72938 -6.80855 -1.78676
LeftShoulder1  1.7244 -2.5507 -22.1525
LeftArm  -11.1876 -11.5648 -56.4301
LeftForeArm  20.741 -4.05337 -14.3157
LeftHand  0.226391 -1.783 -3.52087
RightShoulder  2.65456 1.70415 44.6527
RightArm  -12.4689 -10.9173 11.0921
RightForeArm  -23.4515 -5.42457 15.3886
RightHand  0.791446 -0.755477 19.8979
LeftUpLeg  -17.1089 26.3977 -8.57215
LeftLeg  30.2411 4.68942 3.31967
LeftFoot  -13.8315 0.134957 2.38687
LeftToes  -3.90176e-010 -2.48536e-010 1.05482e-011
1472
root  -44.5479 38.4352 49.7059 -177.21 -28.5236 176.975
RightUpLeg  -26.373 7.8199 -8.93598
RightLeg  46.2981 -7.3062 -8.42019
RightFoot  -4.07595 -0.758818 11.4772
RightToes  5.82063e-011 0 -3.6325e-017
Spine  18.5885 -4.25758 -5.45427
Spine1  3.71264 -7.0331 7.63281
HEad  -1.49643 -9.31795 -2.06034
LeftShoulder1  1.57063 -2.08553 -21.7445
LeftArm  -13.5271 -8.40578 -50.6184
LeftForeArm  22.1455 -5.2686 -13.6475
LeftHand  0.210441 -2.14014 -3.07528
RightShoulder  2.06817 0.613874 44.0245
RightArm  -10.9415 -11.1684 11.7054
RightForeArm  -23.0938 -3.15576 15.8907
RightHand  0.834642 -0.612681 20.3104
LeftUpLeg  -11.542 25.6837 -9.07971
LeftLeg  22.9882 3.07748 1.59973
LeftFoot  -12.7326 0.109724 2.7355
LeftToes  -3.90176e-010 -2.48536e-010 1.05482e-011
1473
root  -46.0031 38.7705 48.7744 -176.801 -31.0876 177.382
RightUpLeg  -26.2089 2.23968 -4.70519
RightLeg  32.409 -5.63639 -4.08179
RightFoot  -4.20592 -0.841509 12.9833
RightToes  5.82063e-011 0 -3.6325e-017
Spine  17.1161 -4.80129 -3.42119
Spine1  3.12314 -7.19956 8.38499
HEad  0.440639 -12.5233 -1.98634
LeftShoulder1  1.43842 -1.82699 -20.552
LeftArm  -14.8663 -4.6182 -44.777
LeftForeArm  19.3751 -7.3192 -12.9379
LeftHand  0.230704 -2.23768 -3.33653
RightShoulder  1.55427 -0.324968 42.8749
RightArm  -6.4347 -11.7671 11.751
RightForeArm  -23.4086 1.71771 16.4462
RightHand  0.91592 -0.19985 20.4224
LeftUpLeg  -5.72221 13.7045 -7.7844
LeftLeg  16.7232 12.5076 -0.104946
LeftFoot  -12.2816 0.103122 2.92497
LeftToes  -3.90176e-010 -2.48536e-010 1.05482e-011
1474
root  -47.4968 38.7849 47.7074 -176.622 -33.2244 177.612
RightUpLeg  -25.0262 -4.80306 0.318705
RightLeg  19.4899 -4.68634 -2.04587
RightFoot  -3.05925 -1.29507 17.4713
RightToes  5.82063e-011 0 -3.6325e-017
Spine  14.9461 -5.01721 -2.25382
Spine1  2.88915 -7.23296 9.25209
HEad  3.02128 -16.8951 -1.6341
LeftShoulder1  1.30099 -1.56142 -19.1579
LeftArm  -15.5461 -1.03568 -38.5509
LeftForeArm  15.3724 -9.00404 -12.3612
LeftHand  0.259717 -2.20844 -3.79623
RightShoulder  1.20737 -0.960592 41.6397
RightArm  5.09097 -12.264 11.1116
RightForeArm  -28.5317 9.28226 15.586
RightHand  1.06667 0.472595 20.9245
LeftUpLeg  -0.911132 5.00385 -8.91481
LeftLeg  11.9871 19.1198 -0.114586
LeftFoot  -12.7172 0.110729 2.8573
LeftToes  -3.90176e-010 -2.48536e-010 1.05482e-011
1475
root  -48.9844 38.6012 46.5764 -176.333 -35.57 177.042
RightUpLeg  -24.1962 -12.3876 4.76672
RightLeg  11.5375 -7.40371 -0.411339
RightFoot  0.544112 -1.79381 17.1502
RightToes  5.82063e-011 0 -3.6325e-017
Spine  13.1659 -4.97001 -2.38692
Spine1  2.16301 -7.35629 10.8293
HEad  5.42605 -22.7462 -1.07172
LeftShoulder1  1.11152 -1.12591 -17.3449
LeftArm  -14.9912 1.97557 -32.4183
LeftForeArm  11.0103 -10.4967 -11.9016
LeftHand  0.257588 -1.726 -4.06497
RightShoulder  0.547623 -2.29825 40.2479
RightArm  20.5641 -12.6366 10.6967
RightForeArm  -38.0776 17.856 11.1863
RightHand  1.16346 0.938167 21.0744
LeftUpLeg  3.54502 3.68142 -10.9124
LeftLeg  8.99829 19.1338 0.432875
LeftFoot  -13.6628 0.130059 2.36863
LeftToes  -3.90176e-010 -2.48536e-010 1.05482e-011
1476
root  -50.4609 38.1936 45.443 -175.419 -37.5206 175.429
RightUpLeg  -24.5614 -18.7781 7.95398
RightLeg  10.3333 -10.3079 1.08607
RightFoot  1.16826 -2.12923 19.3303
RightToes  5.82063e-011 0 -3.6325e-017
Spine  11.7147 -4.74351 -3.16077
Spine1  1.33031 -7.28576 11.8556
HEad  6.8241 -28.963 -0.260173
LeftShoulder1  0.978856 -0.835414 -15.7663
LeftArm  -12.1925 4.34461 -25.5802
LeftForeArm  5.53296 -12.8703 -11.0497
LeftHand  0.305382 -2.51293 -4.29573
RightShoulder  -0.0149069 -3.50671 39.0961
RightArm  27.4159 -12.7038 10.3721
RightForeArm  -43.3774 23.565 7.15921
RightHand  1.14862 0.901716 20.9336
LeftUpLeg  6.55879 3.88069 -12.4259
LeftLeg  9.63762 17.2733 0.0817233
LeftFoot  -15.8743 0.169211 1.86742
LeftToes  -3.90176e-010 -2.48536e-010 1.05482e-011
1477
root  -51.9238 37.8927 44.3657 -175.042 -38.8929 174.352
RightUpLeg  -27.0317 -26.8614 13.8202
RightLeg  14.5755 -3.6583 -0.0512829
RightFoot  0.341704 -0.47073 4.62046
RightToes  5.82063e-011 0 -3.6325e-017
Spine  10.6707 -4.4922 -2.23998
Spine1  1.3997 -7.09816 11.7142
HEad  6.56502 -35.1965 1.20844
LeftShoulder1  0.88728 -0.619786 -14.6267
LeftArm  -9.50169 5.69961 -18.5222
LeftForeArm  -1.25523 -14.6471 -10.4016
LeftHand  0.291244 -1.07711 -5.14874
RightShoulder  -0.0332541 -3.54793 38.6656
RightArm  24.7199 -11.9204 9.67588
RightForeArm  -42.0905 25.915 7.31699
RightHand  1.10849 0.67065 21.0031
LeftUpLeg  9.741 5.51494 -12.201
LeftLeg  10.5287 13.5781 -1.72386
LeftFoot  -17.3719 0.145951 0.791907
LeftToes  -3.90176e-010 -2.48536e-010 1.05482e-011
1478
root  -53.5329 37.5847 43.2858 -175.006 -39.6451 173.595
RightUpLeg  -27.1162 -26.5012 14.506
RightLeg  20.5878 -7.37354 -3.26249
RightFoot  -4.4792 0.529022 -9.29838
RightToes  5.82063e-011 0 -3.6325e-017
Spine  9.77415 -4.16689 0.47083
Spine1  1.63665 -6.44197 10.2927
HEad  5.663 -41.1623 1.96045
LeftShoulder1  0.79584 -0.280746 -14.0886
LeftArm  -9.26384 6.06915 -12.58
LeftForeArm  -3.90308 -15.019 -10.2841
LeftHand  0.300934 -0.639263 -5.76185
RightShoulder  0.356483 -2.6689 38.0454
RightArm  22.5355 -10.7952 9.2531
RightForeArm  -42.3258 26.5413 7.47666
RightHand  1.12066 0.59699 21.4953
LeftUpLeg  12.2497 13.8527 -10.1988
LeftLeg  14.1817 3.78255 -2.36949
LeftFoot  -17.9072 0.0170246 -1.57511
LeftToes  -3.90176e-010 -2.48536e-010 1.05482e-011
1479
root  -55.22 37.2344 42.2194 -175.266 -40.1898 173.309
RightUpLeg  -25.4656 -18.9701 11.1115
RightLeg  27.0643 -16.4198 -9.1298
RightFoot  -11.2431 -0.0654386 -11.8235
RightToes  5.82063e-011 0 -3.6325e-017
Spine  9.44089 -3.67237 3.84615
Spine1  1.39627 -5.54257 9.32807
HEad  4.28527 -46.0718 1.79796
LeftShoulder1  0.728824 0.0292773 -14.0285
LeftArm  -9.7568 6.74549 -8.64876
LeftForeArm  -6.53006 -15.5284 -9.99695
LeftHand  0.292521 0.0497602 -6.41652
RightShoulder  1.02425 -1.10973 37.1562
RightArm  21.4597 -9.17741 8.78892
RightForeArm  -42.6162 26.4475 7.46152
RightHand  1.07324 0.439626 21.1722
LeftUpLeg  13.0439 24.9343 -6.26265
LeftLeg  22.855 -7.84496 -3.28321
LeftFoot  -16.401 -0.144794 -5.49746
LeftToes  -3.90176e-010 -2.48536e-010 1.05482e-011
